<svg xmlns="http://www.w3.org/2000/svg" width="22.241" height="15.638" viewBox="0 0 22.241 15.638"><g transform="translate(0 -76)"><g transform="translate(0 82.95)"><g transform="translate(0 0)"><path d="M21.372,236H.869a.869.869,0,1,0,0,1.738h20.5a.869.869,0,1,0,0-1.738Z" transform="translate(0 -236)"/></g></g><g transform="translate(0 76)"><g transform="translate(0 0)"><path d="M21.372,76H.869a.869.869,0,1,0,0,1.738h20.5a.869.869,0,1,0,0-1.738Z" transform="translate(0 -76)"/></g></g><g transform="translate(0 89.9)"><g transform="translate(0 0)"><path d="M21.372,396H.869a.869.869,0,1,0,0,1.738h20.5a.869.869,0,1,0,0-1.738Z" transform="translate(0 -396)"/></g></g></g></svg>